HIERARCHY
ROOT Hips
{
	OFFSET 0.000000 0.000000 0.000000
	CHANNELS 6 Xposition Yposition Zposition Xrotation Yrotation Zrotation
	JOINT LeftUpLeg_virtual
	{
		OFFSET 0.000000 0.000000 0.000000
		CHANNELS 3 Xrotation Yrotation Zrotation
		JOINT LeftUpLeg
		{
			OFFSET 10.205400 -3.823500 0.155100
			CHANNELS 3 Xrotation Yrotation Zrotation
			JOINT LeftLeg
			{
				OFFSET 0.708757 -12.982077 0.567790
				CHANNELS 3 Xrotation Yrotation Zrotation
				JOINT LeftFoot
				{
					OFFSET -0.708756 -10.717838 -2.184338
					CHANNELS 3 Xrotation Yrotation Zrotation
					JOINT LeftToeBase
					{
						OFFSET 0.108149 -7.191104 7.560241
						CHANNELS 3 Xrotation Yrotation Zrotation
						JOINT LeftToe_End
						{
							OFFSET 0.070230 0.081724 4.490308
							CHANNELS 3 Xrotation Yrotation Zrotation
							End Site
							{
								OFFSET 0 0 0
							}
						}
					}
				}
			}
		}
	}
	JOINT RightUpLeg_virtual
	{
		OFFSET 0.000000 0.000000 0.000000
		CHANNELS 3 Xrotation Yrotation Zrotation
		JOINT RightUpLeg
		{
			OFFSET -10.205400 -3.823500 0.005500
			CHANNELS 3 Xrotation Yrotation Zrotation
			JOINT RightLeg
			{
				OFFSET -0.708756 -12.982134 0.610632
				CHANNELS 3 Xrotation Yrotation Zrotation
				JOINT RightFoot
				{
					OFFSET 0.708754 -10.717769 -1.945823
					CHANNELS 3 Xrotation Yrotation Zrotation
					JOINT RightToeBase
					{
						OFFSET -0.108140 -7.191069 7.372968
						CHANNELS 3 Xrotation Yrotation Zrotation
						JOINT RightToe_End
						{
							OFFSET -0.070227 0.081735 4.479403
							CHANNELS 3 Xrotation Yrotation Zrotation
							End Site
							{
								OFFSET 0 0 0
							}
						}
					}
				}
			}
		}
	}
	JOINT Spine_virtual
	{
		OFFSET 0.000000 0.000000 0.000000
		CHANNELS 3 Xrotation Yrotation Zrotation
		JOINT Spine
		{
			OFFSET 0.000000 6.876099 0.125700
			CHANNELS 3 Xrotation Yrotation Zrotation
			JOINT Spine1
			{
				OFFSET 0.000000 5.730043 0.104720
				CHANNELS 3 Xrotation Yrotation Zrotation
				JOINT Spine1_split
				{
					OFFSET 0.000000 5.730043 0.104720
					CHANNELS 3 Xrotation Yrotation Zrotation
					JOINT Spine2
					{
						OFFSET 0.000000 5.730043 0.104720
						CHANNELS 3 Xrotation Yrotation Zrotation
						JOINT Neck_virtual
						{
							OFFSET 0.000000 0.000000 0.000000
							CHANNELS 3 Xrotation Yrotation Zrotation
							JOINT Neck
							{
								OFFSET 0.000000 10.314075 0.188496
								CHANNELS 3 Xrotation Yrotation Zrotation
								JOINT Head
								{
									OFFSET 0.000000 7.643700 -2.377400
									CHANNELS 3 Xrotation Yrotation Zrotation
									JOINT HeadTop_End
									{
										OFFSET 0.000000 43.788605 -13.619600
										CHANNELS 3 Xrotation Yrotation Zrotation
										End Site
										{
											OFFSET 0 0 0
										}
									}
								}
							}
						}
						JOINT LeftShoulder_virtual
						{
							OFFSET 0.000000 0.000000 0.000000
							CHANNELS 3 Xrotation Yrotation Zrotation
							JOINT LeftShoulder
							{
								OFFSET 2.196100 4.412489 0.087492
								CHANNELS 3 Xrotation Yrotation Zrotation
								JOINT LeftShoulder_split
								{
									OFFSET 2.196100 4.412489 0.087492
									CHANNELS 3 Xrotation Yrotation Zrotation
									JOINT LeftArm
									{
										OFFSET 8.771219 -2.981674 -0.026999
										CHANNELS 3 Xrotation Yrotation Zrotation
										JOINT LeftForeArm
										{
											OFFSET 8.512804 0.000000 -0.000000
											CHANNELS 3 Xrotation Yrotation Zrotation
											JOINT LeftHand
											{
												OFFSET 18.484802 0.000000 -0.000000
												CHANNELS 3 Xrotation Yrotation Zrotation
												End Site
												{
													OFFSET 0 0 0
												}
											}
										}
									}
								}
							}
						}
						JOINT RightShoulder_virtual
						{
							OFFSET 0.000000 0.000000 0.000000
							CHANNELS 3 Xrotation Yrotation Zrotation
							JOINT RightShoulder
							{
								OFFSET -2.196100 4.412496 0.070690
								CHANNELS 3 Xrotation Yrotation Zrotation
								JOINT RightShoulder_split
								{
									OFFSET -2.196100 4.412496 0.070690
									CHANNELS 3 Xrotation Yrotation Zrotation
									JOINT RightArm
									{
										OFFSET -8.771282 -2.981682 -0.094208
										CHANNELS 3 Xrotation Yrotation Zrotation
										JOINT RightForeArm
										{
											OFFSET -8.494598 0.000000 0.000000
											CHANNELS 3 Xrotation Yrotation Zrotation
											JOINT RightHand
											{
												OFFSET -18.483803 0.000000 0.000001
												CHANNELS 3 Xrotation Yrotation Zrotation
												End Site
												{
													OFFSET 0 0 0
												}
											}
										}
									}
								}
							}
						}
					}
				}
			}
		}
	}
}
MOTION
Frames: 5
Frame Time: 0.03333333
-5.679853 8.281523 -29.237093 0.000000 0.000000 0.000000 -89.797644 19.099371 0.033686 -54.395890 8.550044 39.163383 72.018997 6.595510 0.334428 31.988750 5.107852 -22.437503 -3.233630 0.451858 -1.203721 0.000000 0.000000 0.000000 -91.142502 22.754287 2.497404 -48.295725 -0.184928 -43.122222 109.043847 8.089283 -0.886204 23.270765 0.777675 26.010450 2.439794 3.985200 -0.299182 0.000000 0.000000 0.000000 -89.052437 18.870891 -0.893590 57.462395 10.042342 -2.251431 18.322218 4.071570 0.624211 0.306403 -2.604423 0.843615 0.000000 0.000000 0.000000 21.847605 4.108303 0.254367 12.330113 -2.007234 -3.148223 30.163690 0.693450 0.461102 0.000000 0.000000 0.000000 20.160859 3.435932 -0.099143 1.380038 -4.652286 -10.334300 -2.371244 -2.034013 -5.725494 -35.460126 -18.573019 -35.624754 -7.625774 -56.581369 -2.174423 0.000000 0.000000 0.000000 19.534373 3.287810 0.554676 0.018393 11.831819 16.797887 -0.725279 0.203557 -3.585960 -26.314221 -7.478123 35.325636 1.450144 45.717598 -2.261092 0.000000 0.000000 0.000000 
-5.962987 8.226377 -30.258997 0.000000 0.000000 0.000000 -97.412267 18.171826 -0.804866 -47.169891 5.968525 39.825242 71.684454 5.782586 1.649887 30.145726 4.836854 -19.432023 -3.567303 0.759084 -1.798413 0.000000 0.000000 0.000000 -98.554207 23.106509 3.623267 -35.048853 0.471163 -36.740680 105.504867 7.661645 -5.653201 19.442545 -0.666433 30.581636 0.888539 3.291805 -0.205974 0.000000 0.000000 0.000000 -97.450175 18.548627 -1.373552 55.432600 10.563151 -0.703933 19.171364 4.167375 0.731899 0.572807 -2.744368 1.028526 0.000000 0.000000 0.000000 21.912135 4.207412 0.133676 12.393038 -2.725152 -3.007308 31.944436 0.609334 -1.247445 0.000000 0.000000 0.000000 20.557867 3.514597 0.148380 1.125663 -4.181107 -8.908602 -1.672243 -1.850428 -5.492784 -30.255733 -19.065368 -32.859279 -9.379716 -59.030074 -3.649338 0.000000 0.000000 0.000000 20.005032 3.482805 0.705409 -0.118037 12.726054 16.260027 -1.416634 2.220658 -3.518116 -15.617752 -6.552256 35.479448 1.417376 41.090818 -1.487071 0.000000 0.000000 0.000000 
-6.186520 8.198528 -31.177389 0.000000 0.000000 0.000000 -104.289626 17.380364 -1.508896 -40.624459 3.613124 41.279689 71.185932 4.077219 2.720946 29.639401 3.020141 -17.255822 -3.099372 1.051844 -2.026105 0.000000 0.000000 0.000000 -105.161042 23.295813 4.808935 -23.355815 2.554463 -31.481657 103.134361 6.787926 -9.487778 15.053990 -3.523897 31.016104 1.680157 2.564676 -0.021045 0.000000 0.000000 0.000000 -105.084072 18.599104 -1.528786 53.110947 9.681985 0.874890 19.049848 3.818347 0.770364 1.827749 -2.448342 1.646391 0.000000 0.000000 0.000000 21.183917 3.856947 0.029114 12.053015 -3.310949 -2.424994 32.078424 0.524489 -3.104978 0.000000 0.000000 0.000000 19.899259 3.087668 0.357042 0.701777 -4.268144 -7.822680 -0.949764 -1.624441 -4.656745 -24.554899 -19.376702 -31.248918 -10.178508 -59.344556 -4.489486 0.000000 0.000000 0.000000 19.519175 3.192627 0.833709 0.140553 13.462608 15.290215 -2.415037 3.746389 -3.326231 -4.434364 -3.893763 35.220516 1.532861 34.112348 -0.952736 0.000000 0.000000 0.000000 
-6.431652 8.264862 -32.160515 0.000000 0.000000 0.000000 -110.033296 16.999619 -1.672073 -34.585028 1.914775 43.427873 70.044799 2.039438 3.691869 29.590832 0.206015 -16.460356 -2.401166 1.275874 -1.762220 0.000000 0.000000 0.000000 -110.984652 23.274872 5.917967 -14.543030 4.872328 -27.745248 102.113200 5.638173 -11.869060 11.549632 -6.398399 27.778041 4.574786 2.034067 0.054949 0.000000 0.000000 0.000000 -111.517257 18.957113 -1.073832 50.435623 7.319004 2.088511 17.774500 2.921867 0.675751 2.384942 -1.983568 2.147684 0.000000 0.000000 0.000000 19.543698 2.987321 -0.103884 11.388537 -3.729740 -1.399980 30.980102 0.985182 -5.303764 0.000000 0.000000 0.000000 18.157168 2.131122 0.414336 0.236625 -4.399201 -7.184323 -0.268814 -1.434951 -3.349029 -17.649554 -19.597484 -30.554821 -9.488367 -57.339684 -4.210245 0.000000 0.000000 0.000000 17.981258 2.279151 0.849092 0.760532 13.469184 14.010058 -2.870931 4.186775 -3.121666 6.232412 -0.140485 35.115420 1.923515 29.794398 -0.840844 0.000000 0.000000 0.000000 
-6.726397 8.450722 -33.181511 0.000000 0.000000 0.000000 -114.505266 17.034705 -1.246309 -29.243800 1.044547 46.025390 68.126936 0.266469 4.425479 29.006454 -2.857074 -16.931453 -2.045681 1.396640 -1.022130 0.000000 0.000000 0.000000 -115.903720 23.229291 7.138776 -9.021743 6.888265 -25.382938 102.589148 5.004188 -13.286700 10.526981 -7.387451 24.084219 6.891828 1.786396 -0.235055 0.000000 0.000000 0.000000 -116.465968 19.368630 -0.069180 47.445677 3.670120 2.634832 15.500221 1.512839 0.403816 2.404450 -1.385058 2.197858 0.000000 0.000000 0.000000 17.076286 1.593746 -0.288791 9.984289 -3.904006 -0.302682 28.929150 2.127631 -7.847527 0.000000 0.000000 0.000000 15.618665 0.701171 0.299144 -0.145790 -4.327801 -6.633536 -0.191480 -0.959180 -2.472208 -8.969227 -19.691254 -29.962684 -8.045046 -53.291984 -3.369603 0.000000 0.000000 0.000000 15.499052 0.744979 0.694224 1.570982 12.372628 12.619201 -2.553317 3.441829 -3.022463 16.012415 3.744451 35.424059 2.484003 31.948490 -1.155496 0.000000 0.000000 0.000000 
